<mxfile host="app.diagrams.net" modified="2020-11-08T09:43:43.395Z" agent="5.0 (Windows NT 10.0; Win64; x64) AppleWebKit/537.36 (KHTML, like Gecko) Chrome/86.0.4240.183 Safari/537.36" etag="357yG24zKFcYhpJbxMvs" version="13.9.2" type="github" pages="2">
  <diagram id="C5RBs43oDa-KdzZeNtuy" name="로그인">
    <mxGraphModel dx="1023" dy="548" grid="1" gridSize="10" guides="1" tooltips="1" connect="1" arrows="1" fold="1" page="1" pageScale="1" pageWidth="827" pageHeight="1169" math="0" shadow="0">
      <root>
        <mxCell id="WIyWlLk6GJQsqaUBKTNV-0" />
        <mxCell id="WIyWlLk6GJQsqaUBKTNV-1" parent="WIyWlLk6GJQsqaUBKTNV-0" />
        <mxCell id="WJXfIMl5F2djxVyanCiL-40" style="edgeStyle=orthogonalEdgeStyle;rounded=0;orthogonalLoop=1;jettySize=auto;html=1;exitX=0.5;exitY=1;exitDx=0;exitDy=0;entryX=0.5;entryY=0;entryDx=0;entryDy=0;" edge="1" parent="WIyWlLk6GJQsqaUBKTNV-1" source="WJXfIMl5F2djxVyanCiL-29" target="WJXfIMl5F2djxVyanCiL-30">
          <mxGeometry relative="1" as="geometry" />
        </mxCell>
        <mxCell id="WJXfIMl5F2djxVyanCiL-29" value="회원가입" style="rounded=1;whiteSpace=wrap;html=1;" vertex="1" parent="WIyWlLk6GJQsqaUBKTNV-1">
          <mxGeometry x="354" y="20" width="120" height="60" as="geometry" />
        </mxCell>
        <mxCell id="WJXfIMl5F2djxVyanCiL-41" style="edgeStyle=orthogonalEdgeStyle;rounded=0;orthogonalLoop=1;jettySize=auto;html=1;exitX=0;exitY=0.5;exitDx=0;exitDy=0;entryX=1;entryY=0.5;entryDx=0;entryDy=0;" edge="1" parent="WIyWlLk6GJQsqaUBKTNV-1" source="WJXfIMl5F2djxVyanCiL-30" target="WJXfIMl5F2djxVyanCiL-31">
          <mxGeometry relative="1" as="geometry" />
        </mxCell>
        <mxCell id="WJXfIMl5F2djxVyanCiL-51" style="edgeStyle=orthogonalEdgeStyle;rounded=0;orthogonalLoop=1;jettySize=auto;html=1;exitX=1;exitY=0.5;exitDx=0;exitDy=0;entryX=0;entryY=0.5;entryDx=0;entryDy=0;" edge="1" parent="WIyWlLk6GJQsqaUBKTNV-1" source="WJXfIMl5F2djxVyanCiL-30" target="WJXfIMl5F2djxVyanCiL-37">
          <mxGeometry relative="1" as="geometry" />
        </mxCell>
        <mxCell id="WJXfIMl5F2djxVyanCiL-30" value="회원유무" style="rhombus;whiteSpace=wrap;html=1;" vertex="1" parent="WIyWlLk6GJQsqaUBKTNV-1">
          <mxGeometry x="374" y="110" width="80" height="80" as="geometry" />
        </mxCell>
        <mxCell id="WJXfIMl5F2djxVyanCiL-42" style="edgeStyle=orthogonalEdgeStyle;rounded=0;orthogonalLoop=1;jettySize=auto;html=1;exitX=0.5;exitY=1;exitDx=0;exitDy=0;entryX=0.5;entryY=0;entryDx=0;entryDy=0;" edge="1" parent="WIyWlLk6GJQsqaUBKTNV-1" source="WJXfIMl5F2djxVyanCiL-31" target="WJXfIMl5F2djxVyanCiL-32">
          <mxGeometry relative="1" as="geometry" />
        </mxCell>
        <mxCell id="WJXfIMl5F2djxVyanCiL-31" value="약관 폼" style="rounded=0;whiteSpace=wrap;html=1;" vertex="1" parent="WIyWlLk6GJQsqaUBKTNV-1">
          <mxGeometry x="120" y="130" width="120" height="40" as="geometry" />
        </mxCell>
        <mxCell id="WJXfIMl5F2djxVyanCiL-43" style="edgeStyle=orthogonalEdgeStyle;rounded=0;orthogonalLoop=1;jettySize=auto;html=1;exitX=1;exitY=0.5;exitDx=0;exitDy=0;entryX=0;entryY=0.5;entryDx=0;entryDy=0;" edge="1" parent="WIyWlLk6GJQsqaUBKTNV-1" source="WJXfIMl5F2djxVyanCiL-32" target="WJXfIMl5F2djxVyanCiL-33">
          <mxGeometry relative="1" as="geometry" />
        </mxCell>
        <mxCell id="WJXfIMl5F2djxVyanCiL-61" style="edgeStyle=orthogonalEdgeStyle;rounded=0;orthogonalLoop=1;jettySize=auto;html=1;exitX=0;exitY=0.5;exitDx=0;exitDy=0;entryX=0;entryY=0.5;entryDx=0;entryDy=0;" edge="1" parent="WIyWlLk6GJQsqaUBKTNV-1" source="WJXfIMl5F2djxVyanCiL-32" target="WJXfIMl5F2djxVyanCiL-36">
          <mxGeometry relative="1" as="geometry" />
        </mxCell>
        <mxCell id="WJXfIMl5F2djxVyanCiL-32" value="약관동의" style="rhombus;whiteSpace=wrap;html=1;" vertex="1" parent="WIyWlLk6GJQsqaUBKTNV-1">
          <mxGeometry x="130" y="210" width="100" height="60" as="geometry" />
        </mxCell>
        <mxCell id="WJXfIMl5F2djxVyanCiL-47" style="edgeStyle=orthogonalEdgeStyle;rounded=0;orthogonalLoop=1;jettySize=auto;html=1;exitX=0.5;exitY=1;exitDx=0;exitDy=0;entryX=0.5;entryY=0;entryDx=0;entryDy=0;" edge="1" parent="WIyWlLk6GJQsqaUBKTNV-1" source="WJXfIMl5F2djxVyanCiL-33" target="WJXfIMl5F2djxVyanCiL-34">
          <mxGeometry relative="1" as="geometry" />
        </mxCell>
        <mxCell id="WJXfIMl5F2djxVyanCiL-33" value="회원정보 입력" style="shape=parallelogram;perimeter=parallelogramPerimeter;whiteSpace=wrap;html=1;fixedSize=1;" vertex="1" parent="WIyWlLk6GJQsqaUBKTNV-1">
          <mxGeometry x="294" y="210" width="120" height="60" as="geometry" />
        </mxCell>
        <mxCell id="WJXfIMl5F2djxVyanCiL-46" style="edgeStyle=orthogonalEdgeStyle;rounded=0;orthogonalLoop=1;jettySize=auto;html=1;exitX=0;exitY=0.5;exitDx=0;exitDy=0;" edge="1" parent="WIyWlLk6GJQsqaUBKTNV-1" source="WJXfIMl5F2djxVyanCiL-34" target="WJXfIMl5F2djxVyanCiL-33">
          <mxGeometry relative="1" as="geometry">
            <mxPoint x="310" y="300" as="targetPoint" />
            <Array as="points">
              <mxPoint x="240" y="345" />
              <mxPoint x="240" y="270" />
            </Array>
          </mxGeometry>
        </mxCell>
        <mxCell id="WJXfIMl5F2djxVyanCiL-48" style="edgeStyle=orthogonalEdgeStyle;rounded=0;orthogonalLoop=1;jettySize=auto;html=1;exitX=0.5;exitY=1;exitDx=0;exitDy=0;entryX=0.5;entryY=0;entryDx=0;entryDy=0;" edge="1" parent="WIyWlLk6GJQsqaUBKTNV-1" source="WJXfIMl5F2djxVyanCiL-34" target="WJXfIMl5F2djxVyanCiL-35">
          <mxGeometry relative="1" as="geometry" />
        </mxCell>
        <mxCell id="WJXfIMl5F2djxVyanCiL-34" value="데이터 유효체크" style="rhombus;whiteSpace=wrap;html=1;" vertex="1" parent="WIyWlLk6GJQsqaUBKTNV-1">
          <mxGeometry x="284" y="320" width="140" height="50" as="geometry" />
        </mxCell>
        <mxCell id="WJXfIMl5F2djxVyanCiL-49" style="edgeStyle=orthogonalEdgeStyle;rounded=0;orthogonalLoop=1;jettySize=auto;html=1;exitX=0.5;exitY=1;exitDx=0;exitDy=0;entryX=0.5;entryY=0;entryDx=0;entryDy=0;" edge="1" parent="WIyWlLk6GJQsqaUBKTNV-1" source="WJXfIMl5F2djxVyanCiL-35" target="WJXfIMl5F2djxVyanCiL-36">
          <mxGeometry relative="1" as="geometry" />
        </mxCell>
        <mxCell id="WJXfIMl5F2djxVyanCiL-35" value="회원가입 성공,&lt;br&gt;로그인 폼" style="rounded=0;whiteSpace=wrap;html=1;" vertex="1" parent="WIyWlLk6GJQsqaUBKTNV-1">
          <mxGeometry x="294" y="420" width="120" height="60" as="geometry" />
        </mxCell>
        <mxCell id="WJXfIMl5F2djxVyanCiL-36" value="MAIN" style="rounded=0;whiteSpace=wrap;html=1;" vertex="1" parent="WIyWlLk6GJQsqaUBKTNV-1">
          <mxGeometry x="294" y="525" width="120" height="60" as="geometry" />
        </mxCell>
        <mxCell id="WJXfIMl5F2djxVyanCiL-64" style="edgeStyle=orthogonalEdgeStyle;rounded=0;orthogonalLoop=1;jettySize=auto;html=1;exitX=0.5;exitY=1;exitDx=0;exitDy=0;entryX=0.5;entryY=0;entryDx=0;entryDy=0;" edge="1" parent="WIyWlLk6GJQsqaUBKTNV-1" source="WJXfIMl5F2djxVyanCiL-37" target="WJXfIMl5F2djxVyanCiL-38">
          <mxGeometry relative="1" as="geometry" />
        </mxCell>
        <mxCell id="WJXfIMl5F2djxVyanCiL-37" value="로그인 폼" style="rounded=0;whiteSpace=wrap;html=1;" vertex="1" parent="WIyWlLk6GJQsqaUBKTNV-1">
          <mxGeometry x="540" y="120" width="120" height="60" as="geometry" />
        </mxCell>
        <mxCell id="WJXfIMl5F2djxVyanCiL-65" style="edgeStyle=orthogonalEdgeStyle;rounded=0;orthogonalLoop=1;jettySize=auto;html=1;exitX=0.5;exitY=1;exitDx=0;exitDy=0;entryX=0.5;entryY=0;entryDx=0;entryDy=0;" edge="1" parent="WIyWlLk6GJQsqaUBKTNV-1" source="WJXfIMl5F2djxVyanCiL-38" target="WJXfIMl5F2djxVyanCiL-39">
          <mxGeometry relative="1" as="geometry" />
        </mxCell>
        <mxCell id="WJXfIMl5F2djxVyanCiL-66" style="edgeStyle=orthogonalEdgeStyle;rounded=0;orthogonalLoop=1;jettySize=auto;html=1;exitX=1;exitY=0.5;exitDx=0;exitDy=0;entryX=1;entryY=0.5;entryDx=0;entryDy=0;" edge="1" parent="WIyWlLk6GJQsqaUBKTNV-1" source="WJXfIMl5F2djxVyanCiL-38" target="WJXfIMl5F2djxVyanCiL-37">
          <mxGeometry relative="1" as="geometry">
            <Array as="points">
              <mxPoint x="690" y="270" />
              <mxPoint x="690" y="150" />
            </Array>
          </mxGeometry>
        </mxCell>
        <mxCell id="WJXfIMl5F2djxVyanCiL-38" value="로그인 데이터&lt;br&gt;체크" style="rhombus;whiteSpace=wrap;html=1;" vertex="1" parent="WIyWlLk6GJQsqaUBKTNV-1">
          <mxGeometry x="540" y="230" width="120" height="80" as="geometry" />
        </mxCell>
        <mxCell id="WJXfIMl5F2djxVyanCiL-50" style="edgeStyle=orthogonalEdgeStyle;rounded=0;orthogonalLoop=1;jettySize=auto;html=1;exitX=0.5;exitY=1;exitDx=0;exitDy=0;entryX=1;entryY=0.5;entryDx=0;entryDy=0;" edge="1" parent="WIyWlLk6GJQsqaUBKTNV-1" source="WJXfIMl5F2djxVyanCiL-39" target="WJXfIMl5F2djxVyanCiL-36">
          <mxGeometry relative="1" as="geometry" />
        </mxCell>
        <mxCell id="WJXfIMl5F2djxVyanCiL-39" value="로그인 성공 폼" style="rounded=0;whiteSpace=wrap;html=1;" vertex="1" parent="WIyWlLk6GJQsqaUBKTNV-1">
          <mxGeometry x="540" y="370" width="120" height="60" as="geometry" />
        </mxCell>
        <mxCell id="WJXfIMl5F2djxVyanCiL-52" value="YES&lt;br&gt;기존회원" style="text;html=1;strokeColor=none;fillColor=none;align=center;verticalAlign=middle;whiteSpace=wrap;rounded=0;" vertex="1" parent="WIyWlLk6GJQsqaUBKTNV-1">
          <mxGeometry x="468" y="120" width="56" height="20" as="geometry" />
        </mxCell>
        <mxCell id="WJXfIMl5F2djxVyanCiL-53" value="NO&lt;br&gt;신규회원" style="text;html=1;strokeColor=none;fillColor=none;align=center;verticalAlign=middle;whiteSpace=wrap;rounded=0;" vertex="1" parent="WIyWlLk6GJQsqaUBKTNV-1">
          <mxGeometry x="310" y="120" width="60" height="20" as="geometry" />
        </mxCell>
        <mxCell id="WJXfIMl5F2djxVyanCiL-54" value="동의" style="text;html=1;strokeColor=none;fillColor=none;align=center;verticalAlign=middle;whiteSpace=wrap;rounded=0;" vertex="1" parent="WIyWlLk6GJQsqaUBKTNV-1">
          <mxGeometry x="230" y="220" width="40" height="20" as="geometry" />
        </mxCell>
        <mxCell id="WJXfIMl5F2djxVyanCiL-55" value="* 아이디 중복체크" style="text;html=1;strokeColor=none;fillColor=none;align=center;verticalAlign=middle;whiteSpace=wrap;rounded=0;" vertex="1" parent="WIyWlLk6GJQsqaUBKTNV-1">
          <mxGeometry x="400" y="220" width="110" height="50" as="geometry" />
        </mxCell>
        <mxCell id="WJXfIMl5F2djxVyanCiL-56" value="NO" style="text;html=1;strokeColor=none;fillColor=none;align=center;verticalAlign=middle;whiteSpace=wrap;rounded=0;" vertex="1" parent="WIyWlLk6GJQsqaUBKTNV-1">
          <mxGeometry x="200" y="300" width="40" height="20" as="geometry" />
        </mxCell>
        <mxCell id="WJXfIMl5F2djxVyanCiL-59" value="YES" style="text;html=1;strokeColor=none;fillColor=none;align=center;verticalAlign=middle;whiteSpace=wrap;rounded=0;" vertex="1" parent="WIyWlLk6GJQsqaUBKTNV-1">
          <mxGeometry x="310" y="380" width="40" height="20" as="geometry" />
        </mxCell>
        <mxCell id="WJXfIMl5F2djxVyanCiL-62" value="동의하지않음" style="text;html=1;strokeColor=none;fillColor=none;align=center;verticalAlign=middle;whiteSpace=wrap;rounded=0;" vertex="1" parent="WIyWlLk6GJQsqaUBKTNV-1">
          <mxGeometry x="20" y="380" width="100" height="20" as="geometry" />
        </mxCell>
        <mxCell id="WJXfIMl5F2djxVyanCiL-67" value="로그인 실패" style="text;html=1;strokeColor=none;fillColor=none;align=center;verticalAlign=middle;whiteSpace=wrap;rounded=0;" vertex="1" parent="WIyWlLk6GJQsqaUBKTNV-1">
          <mxGeometry x="700" y="200" width="90" height="20" as="geometry" />
        </mxCell>
        <mxCell id="WJXfIMl5F2djxVyanCiL-68" value="로그인 성공" style="text;html=1;strokeColor=none;fillColor=none;align=center;verticalAlign=middle;whiteSpace=wrap;rounded=0;" vertex="1" parent="WIyWlLk6GJQsqaUBKTNV-1">
          <mxGeometry x="600" y="330" width="90" height="20" as="geometry" />
        </mxCell>
      </root>
    </mxGraphModel>
  </diagram>
  <diagram id="hRNQPvmudaIZn_FZsV3z" name="Page-2">
    <mxGraphModel dx="1023" dy="548" grid="1" gridSize="10" guides="1" tooltips="1" connect="1" arrows="1" fold="1" page="1" pageScale="1" pageWidth="827" pageHeight="1169" math="0" shadow="0">
      <root>
        <mxCell id="WrPdLfpmoV8Dt-UDw9Hz-0" />
        <mxCell id="WrPdLfpmoV8Dt-UDw9Hz-1" parent="WrPdLfpmoV8Dt-UDw9Hz-0" />
        <mxCell id="WrPdLfpmoV8Dt-UDw9Hz-2" value="상품 리스트" style="rounded=1;whiteSpace=wrap;html=1;" vertex="1" parent="WrPdLfpmoV8Dt-UDw9Hz-1">
          <mxGeometry x="354" y="110" width="120" height="30" as="geometry" />
        </mxCell>
        <mxCell id="WrPdLfpmoV8Dt-UDw9Hz-3" value="상품 상세정보" style="rounded=0;whiteSpace=wrap;html=1;" vertex="1" parent="WrPdLfpmoV8Dt-UDw9Hz-1">
          <mxGeometry x="334" y="160" width="160" height="30" as="geometry" />
        </mxCell>
        <mxCell id="WrPdLfpmoV8Dt-UDw9Hz-4" value="장바구니" style="rounded=0;whiteSpace=wrap;html=1;" vertex="1" parent="WrPdLfpmoV8Dt-UDw9Hz-1">
          <mxGeometry x="180" y="210" width="120" height="30" as="geometry" />
        </mxCell>
        <mxCell id="WrPdLfpmoV8Dt-UDw9Hz-5" value="" style="rounded=0;whiteSpace=wrap;html=1;" vertex="1" parent="WrPdLfpmoV8Dt-UDw9Hz-1">
          <mxGeometry x="520" y="210" width="124" height="30" as="geometry" />
        </mxCell>
        <mxCell id="WrPdLfpmoV8Dt-UDw9Hz-6" value="쇼핑계속" style="rounded=0;whiteSpace=wrap;html=1;" vertex="1" parent="WrPdLfpmoV8Dt-UDw9Hz-1">
          <mxGeometry x="40" y="260" width="120" height="30" as="geometry" />
        </mxCell>
        <mxCell id="WrPdLfpmoV8Dt-UDw9Hz-7" value="바로구매하기" style="rounded=0;whiteSpace=wrap;html=1;" vertex="1" parent="WrPdLfpmoV8Dt-UDw9Hz-1">
          <mxGeometry x="250" y="260" width="120" height="30" as="geometry" />
        </mxCell>
        <mxCell id="WrPdLfpmoV8Dt-UDw9Hz-8" value="" style="rounded=0;whiteSpace=wrap;html=1;" vertex="1" parent="WrPdLfpmoV8Dt-UDw9Hz-1">
          <mxGeometry x="80" y="430" width="120" height="30" as="geometry" />
        </mxCell>
        <mxCell id="WrPdLfpmoV8Dt-UDw9Hz-9" value="" style="rounded=0;whiteSpace=wrap;html=1;" vertex="1" parent="WrPdLfpmoV8Dt-UDw9Hz-1">
          <mxGeometry x="80" y="480" width="120" height="30" as="geometry" />
        </mxCell>
        <mxCell id="WrPdLfpmoV8Dt-UDw9Hz-10" value="" style="rounded=0;whiteSpace=wrap;html=1;" vertex="1" parent="WrPdLfpmoV8Dt-UDw9Hz-1">
          <mxGeometry x="80" y="530" width="120" height="30" as="geometry" />
        </mxCell>
        <mxCell id="WrPdLfpmoV8Dt-UDw9Hz-11" value="" style="rounded=0;whiteSpace=wrap;html=1;" vertex="1" parent="WrPdLfpmoV8Dt-UDw9Hz-1">
          <mxGeometry x="250" y="430" width="120" height="30" as="geometry" />
        </mxCell>
        <mxCell id="WrPdLfpmoV8Dt-UDw9Hz-12" value="" style="rounded=0;whiteSpace=wrap;html=1;" vertex="1" parent="WrPdLfpmoV8Dt-UDw9Hz-1">
          <mxGeometry x="250" y="480" width="120" height="30" as="geometry" />
        </mxCell>
        <mxCell id="WrPdLfpmoV8Dt-UDw9Hz-13" value="" style="rounded=0;whiteSpace=wrap;html=1;" vertex="1" parent="WrPdLfpmoV8Dt-UDw9Hz-1">
          <mxGeometry x="250" y="530" width="120" height="30" as="geometry" />
        </mxCell>
        <mxCell id="WrPdLfpmoV8Dt-UDw9Hz-14" value="" style="rounded=1;whiteSpace=wrap;html=1;" vertex="1" parent="WrPdLfpmoV8Dt-UDw9Hz-1">
          <mxGeometry x="354" y="600" width="120" height="30" as="geometry" />
        </mxCell>
        <mxCell id="WrPdLfpmoV8Dt-UDw9Hz-15" value="회원유무" style="rhombus;whiteSpace=wrap;html=1;" vertex="1" parent="WrPdLfpmoV8Dt-UDw9Hz-1">
          <mxGeometry x="250" y="330" width="116" height="80" as="geometry" />
        </mxCell>
        <mxCell id="WrPdLfpmoV8Dt-UDw9Hz-16" value="" style="rhombus;whiteSpace=wrap;html=1;" vertex="1" parent="WrPdLfpmoV8Dt-UDw9Hz-1">
          <mxGeometry x="524" y="280" width="116" height="80" as="geometry" />
        </mxCell>
        <mxCell id="WrPdLfpmoV8Dt-UDw9Hz-17" value="" style="rounded=0;whiteSpace=wrap;html=1;" vertex="1" parent="WrPdLfpmoV8Dt-UDw9Hz-1">
          <mxGeometry x="524" y="400" width="120" height="30" as="geometry" />
        </mxCell>
        <mxCell id="WrPdLfpmoV8Dt-UDw9Hz-18" value="" style="rounded=0;whiteSpace=wrap;html=1;" vertex="1" parent="WrPdLfpmoV8Dt-UDw9Hz-1">
          <mxGeometry x="524" y="450" width="120" height="30" as="geometry" />
        </mxCell>
        <mxCell id="WrPdLfpmoV8Dt-UDw9Hz-19" value="" style="rounded=0;whiteSpace=wrap;html=1;" vertex="1" parent="WrPdLfpmoV8Dt-UDw9Hz-1">
          <mxGeometry x="524" y="500" width="120" height="30" as="geometry" />
        </mxCell>
        <mxCell id="WrPdLfpmoV8Dt-UDw9Hz-20" value="" style="rounded=0;whiteSpace=wrap;html=1;" vertex="1" parent="WrPdLfpmoV8Dt-UDw9Hz-1">
          <mxGeometry x="694" y="400" width="120" height="30" as="geometry" />
        </mxCell>
        <mxCell id="WrPdLfpmoV8Dt-UDw9Hz-21" value="" style="rounded=0;whiteSpace=wrap;html=1;" vertex="1" parent="WrPdLfpmoV8Dt-UDw9Hz-1">
          <mxGeometry x="694" y="450" width="120" height="30" as="geometry" />
        </mxCell>
        <mxCell id="WrPdLfpmoV8Dt-UDw9Hz-22" value="" style="rounded=0;whiteSpace=wrap;html=1;" vertex="1" parent="WrPdLfpmoV8Dt-UDw9Hz-1">
          <mxGeometry x="694" y="500" width="120" height="30" as="geometry" />
        </mxCell>
        <mxCell id="WrPdLfpmoV8Dt-UDw9Hz-23" value="상품 카테고리" style="rounded=1;whiteSpace=wrap;html=1;" vertex="1" parent="WrPdLfpmoV8Dt-UDw9Hz-1">
          <mxGeometry x="354" y="60" width="120" height="30" as="geometry" />
        </mxCell>
      </root>
    </mxGraphModel>
  </diagram>
</mxfile>
